<svg id="Layer_1" data-name="Layer 1" xmlns="http://www.w3.org/2000/svg" viewBox="0 0 262.49 202.58"><defs><style>.cls-1{fill:#fff;}</style></defs><title>TPCLogo-StackedBlack</title><rect x="1.13" y="54.23" width="127.82" height="40.94"/><path d="M20.48,8.88V40.45H11.89V8.88H.93v-7H31.38v7Z"/><path d="M43.74,14.55a10.65,10.65,0,0,1,8-3.37,10.93,10.93,0,0,1,7.22,2.36,8.41,8.41,0,0,1,2.84,6.85V40.45H53.57V22.19a5.27,5.27,0,0,0-1.26-3.62,4.09,4.09,0,0,0-3.23-1.43,5,5,0,0,0-3.76,1.65,5.64,5.64,0,0,0-1.58,4V40.45h-8.2V0h8.2Z"/><path d="M94,36a10.58,10.58,0,0,1-4.75,3.77A16.88,16.88,0,0,1,82.79,41h-.9a15.22,15.22,0,0,1-7.19-1.68,12.32,12.32,0,0,1-5-4.86,14.9,14.9,0,0,1-1.83-7.56V25.28a14.75,14.75,0,0,1,1.86-7.53,12.43,12.43,0,0,1,5-4.88,14.93,14.93,0,0,1,7.16-1.69h.9a14.79,14.79,0,0,1,6.46,1.43A11.68,11.68,0,0,1,94,16.77a11.48,11.48,0,0,1,1.79,6.43v4.27H76.16v1.35a6.79,6.79,0,0,0,1.66,4.69,5.69,5.69,0,0,0,4.52,1.89A5.6,5.6,0,0,0,86.41,34a5.59,5.59,0,0,0,1.49-4.24h7.87A10.69,10.69,0,0,1,94,36Zm-16-17.5A7.41,7.41,0,0,0,76.16,23H87.51a7.05,7.05,0,0,0-1.32-4.52,5.86,5.86,0,0,0-8.26.08Z"/><path d="M10,146.57H1.35V108H19.94a11.67,11.67,0,0,1,5.82,1.49,11.34,11.34,0,0,1,5.82,10v.33A11.82,11.82,0,0,1,30,125.81a11.51,11.51,0,0,1-4.21,4.3,11.36,11.36,0,0,1-5.88,1.57H10Zm0-21.69h7.92a4.73,4.73,0,0,0,3.54-1.43,4.61,4.61,0,0,0,1.41-3.34v-.34a4.8,4.8,0,0,0-4.95-4.83H10Z"/><path d="M52.73,124.1a5.44,5.44,0,0,0-3.91-1.18,6.15,6.15,0,0,0-2.69.53,4.65,4.65,0,0,0-1.72,1.32,2.53,2.53,0,0,0-.59,1.46v.45H35.9a7.47,7.47,0,0,1-.11-1,6.56,6.56,0,0,1,1.6-4.33,10.45,10.45,0,0,1,4.47-3,18.55,18.55,0,0,1,6.57-1.07h1.18c4,0,7.12.79,9.21,2.39A7.76,7.76,0,0,1,62,126.23v13.26a2.15,2.15,0,0,0,.48,1.52,1.55,1.55,0,0,0,1.15.5,4,4,0,0,0,1.24-.22c.45-.15.8-.28,1.06-.39v5A9.79,9.79,0,0,1,61,147.13a7.6,7.6,0,0,1-4.72-1.26,5.09,5.09,0,0,1-1.91-3.57,12,12,0,0,1-9.66,4.83,13,13,0,0,1-7-1.74q-2.74-1.74-2.75-6.63a7.91,7.91,0,0,1,2.28-6.1,12.23,12.23,0,0,1,6.32-2.83,60.45,60.45,0,0,1,10.45-.73v-1.91A4.13,4.13,0,0,0,52.73,124.1ZM46,134.74q-2.62,1-2.62,3.4a3,3,0,0,0,1,2.61,5.38,5.38,0,0,0,3.18.76,6.18,6.18,0,0,0,2.92-.78A6.9,6.9,0,0,0,53,138.48a5.67,5.67,0,0,0,1-3.26V133.7A22.87,22.87,0,0,0,46,134.74Z"/><path d="M91,119.72a7.51,7.51,0,0,0-6-2.42,8.79,8.79,0,0,0-4.19,1,9,9,0,0,0-2.69,2.08A6.8,6.8,0,0,0,77,122.08l-1-4.22H69.94v28.71H78V128.82a6.76,6.76,0,0,1,1-3.85,3.42,3.42,0,0,1,3-1.55,3.55,3.55,0,0,1,3,1.27,4.81,4.81,0,0,1,1,3v.19h7a.15.15,0,0,0,0-.07,16.09,16.09,0,0,0,.09-1.69A9.36,9.36,0,0,0,91,119.72Z"/><path d="M110,146.82a19.1,19.1,0,0,1-3.23.31q-4.32,0-6.51-1.85T98.1,139.1V123.48H95v-5.62h3.43l2.86-9.16h5.06v9.16H113v5.62H106.3v14.21a4.07,4.07,0,0,0,.87,3,3.37,3.37,0,0,0,2.33.78,8.72,8.72,0,0,0,1.74-.22,9.75,9.75,0,0,0,1.74-.51v5.28A14.33,14.33,0,0,1,110,146.82Z"/><path d="M118.21,106.12h8.31v6.46h-8.31Zm.05,40.45V117.86h8.21v28.71Z"/><path d="M142.37,139.63a4.69,4.69,0,0,0,3.93,1.88,5.27,5.27,0,0,0,4.07-1.6,6.72,6.72,0,0,0,1.49-4.75h7.76a12.27,12.27,0,0,1-1.72,6.69,10.42,10.42,0,0,1-4.52,4,14.61,14.61,0,0,1-6.18,1.29h-.9q-6.28,0-10-3.73T132.59,133V131.4a15.31,15.31,0,0,1,1.77-7.56,12.22,12.22,0,0,1,4.86-4.86,14.58,14.58,0,0,1,7.08-1.68h.9a13.5,13.5,0,0,1,6.15,1.43,11.32,11.32,0,0,1,4.55,4.16,11.86,11.86,0,0,1,1.72,6.43h-8.15a7.64,7.64,0,0,0-1.29-4.66,4.46,4.46,0,0,0-3.82-1.74,4.67,4.67,0,0,0-4,2,8.26,8.26,0,0,0-1.46,5v5A7.38,7.38,0,0,0,142.37,139.63Z"/><path d="M165.74,146.57V106.12h8.2v40.45Z"/><path d="M206.25,142.16a10.56,10.56,0,0,1-4.75,3.76,16.73,16.73,0,0,1-6.43,1.21h-.9a15.22,15.22,0,0,1-7.19-1.68,12.38,12.38,0,0,1-5-4.86,14.9,14.9,0,0,1-1.83-7.56V131.4a14.75,14.75,0,0,1,1.86-7.53,12.55,12.55,0,0,1,5-4.89,15.11,15.11,0,0,1,7.17-1.68h.9a14.79,14.79,0,0,1,6.46,1.43,11.72,11.72,0,0,1,4.77,4.16,11.4,11.4,0,0,1,1.8,6.43v4.27H188.44v1.35a6.85,6.85,0,0,0,1.65,4.69,5.72,5.72,0,0,0,4.53,1.88,5.09,5.09,0,0,0,5.56-5.67H208A10.69,10.69,0,0,1,206.25,142.16Zm-16-17.5a7.41,7.41,0,0,0-1.77,4.44h11.35a7.1,7.1,0,0,0-1.32-4.53,5.87,5.87,0,0,0-8.26.09Z"/><path d="M11.41,193.34a7.83,7.83,0,0,0,5.84,2.33c2.66,0,4.62-.72,5.9-2.16s1.91-3.66,1.91-6.66H33a17.14,17.14,0,0,1-2,8.51,13.17,13.17,0,0,1-5.47,5.4,16.81,16.81,0,0,1-7.87,1.82h-.79a18.64,18.64,0,0,1-8.65-2,14.39,14.39,0,0,1-6-5.82A18.49,18.49,0,0,1,0,185.5V180a18.32,18.32,0,0,1,2.19-9.16,14.76,14.76,0,0,1,6-5.9,17.68,17.68,0,0,1,8.46-2h.79a17.53,17.53,0,0,1,8,1.77A13,13,0,0,1,31,170a17.6,17.6,0,0,1,2,8.74H24.72q0-4.38-1.94-6.66a6.94,6.94,0,0,0-5.59-2.27,7.77,7.77,0,0,0-5.81,2.33,9,9,0,0,0-2.28,6.6v8A9,9,0,0,0,11.41,193.34Z"/><path d="M65.26,196a12.39,12.39,0,0,1-5,4.89A15.25,15.25,0,0,1,53,202.58h-.9A15.22,15.22,0,0,1,45,200.9a12.27,12.27,0,0,1-5-4.89,14.92,14.92,0,0,1-1.83-7.53v-1.63a15,15,0,0,1,1.83-7.53,12.27,12.27,0,0,1,5-4.89,15.22,15.22,0,0,1,7.19-1.68H53a15.25,15.25,0,0,1,7.19,1.68,12.39,12.39,0,0,1,5,4.89,15,15,0,0,1,1.82,7.53v1.63A15,15,0,0,1,65.26,196Zm-8.21-15.84a6.44,6.44,0,0,0-8.93,0,7.28,7.28,0,0,0-1.71,5.22v4.55a7.31,7.31,0,0,0,1.71,5.23,6.46,6.46,0,0,0,8.93,0,7.26,7.26,0,0,0,1.72-5.23v-4.55A7.24,7.24,0,0,0,57.05,180.17Z"/><path d="M73.21,202V161.57h8.2V202Z"/><path d="M88.88,202V161.57h8.2V202Z"/><path d="M129.39,197.61a10.58,10.58,0,0,1-4.75,3.77,16.92,16.92,0,0,1-6.43,1.2h-.9a15.22,15.22,0,0,1-7.19-1.68,12.38,12.38,0,0,1-5-4.86,14.9,14.9,0,0,1-1.83-7.56v-1.63a14.75,14.75,0,0,1,1.86-7.53,12.52,12.52,0,0,1,5-4.89,15,15,0,0,1,7.16-1.68h.9a14.79,14.79,0,0,1,6.46,1.43,11.75,11.75,0,0,1,4.78,4.16,11.48,11.48,0,0,1,1.79,6.43V189H111.58v1.35a6.81,6.81,0,0,0,1.66,4.69,5.69,5.69,0,0,0,4.52,1.88,5.09,5.09,0,0,0,5.56-5.67h7.87A10.69,10.69,0,0,1,129.39,197.61Zm-16-17.5a7.41,7.41,0,0,0-1.77,4.44h11.35a7.05,7.05,0,0,0-1.32-4.52,5.86,5.86,0,0,0-8.26.08Z"/><path d="M145.85,195.08a4.69,4.69,0,0,0,3.93,1.88,5.3,5.3,0,0,0,4.08-1.6,6.74,6.74,0,0,0,1.49-4.74h7.75a12.23,12.23,0,0,1-1.71,6.68,10.45,10.45,0,0,1-4.53,4,14.61,14.61,0,0,1-6.18,1.29h-.9q-6.28,0-10-3.73t-3.7-10.37v-1.63a15.42,15.42,0,0,1,1.76-7.56,12.18,12.18,0,0,1,4.87-4.86,14.52,14.52,0,0,1,7.07-1.68h.9a13.5,13.5,0,0,1,6.15,1.43,11.35,11.35,0,0,1,4.56,4.16,11.85,11.85,0,0,1,1.71,6.43H155a7.66,7.66,0,0,0-1.29-4.66,4.45,4.45,0,0,0-3.82-1.74,4.67,4.67,0,0,0-4,2,8.32,8.32,0,0,0-1.46,5v5A7.44,7.44,0,0,0,145.85,195.08Z"/><path d="M181.84,202.27a19.29,19.29,0,0,1-3.23.31q-4.34,0-6.52-1.85t-2.19-6.18V178.93h-3.15v-5.62h3.43l2.86-9.16h5.06v9.16h6.69v5.62H178.1v14.21a4.07,4.07,0,0,0,.87,3,3.37,3.37,0,0,0,2.33.78,8.72,8.72,0,0,0,1.74-.22,9.89,9.89,0,0,0,1.75-.51v5.29A14.57,14.57,0,0,1,181.84,202.27Z"/><path d="M190,161.57h8.31V168H190Zm.06,40.45V173.31h8.2V202Z"/><path d="M221.64,202h-9.27l-10.06-28.71H211l6.24,19.22h.28l6.24-19.22h8Z"/><path d="M260.63,197.61a10.58,10.58,0,0,1-4.75,3.77,16.88,16.88,0,0,1-6.43,1.2h-.9a15.25,15.25,0,0,1-7.19-1.68,12.45,12.45,0,0,1-5-4.86,15,15,0,0,1-1.82-7.56v-1.63a14.85,14.85,0,0,1,1.85-7.53,12.58,12.58,0,0,1,5-4.89,15,15,0,0,1,7.16-1.68h.9a14.76,14.76,0,0,1,6.46,1.43,11.68,11.68,0,0,1,4.78,4.16,11.4,11.4,0,0,1,1.8,6.43V189H242.82v1.35a6.81,6.81,0,0,0,1.66,4.69,6.45,6.45,0,0,0,8.6.45,5.62,5.62,0,0,0,1.48-4.24h7.87A10.69,10.69,0,0,1,260.63,197.61Zm-16-17.5a7.41,7.41,0,0,0-1.77,4.44h11.35a7.05,7.05,0,0,0-1.32-4.52,5.86,5.86,0,0,0-8.26.08Z"/><path class="cls-1" d="M72.83,72.5c1.19,1.74,1.15,2,1.34,1.93,0,0,0,.14,0,.16a.3.3,0,0,0-.22.2s-.06,0-.09.06a1.48,1.48,0,0,1-.27.1.3.3,0,0,0-.21.2c-.07.18-.23.31-.29.5a2.44,2.44,0,0,0-.07.46c.14.16,0,.36.09.52a0,0,0,0,1,0,0c-.17.19,0,.41-.06.61,0,0,0,.12,0,.17a.69.69,0,0,1-.26.64,1,1,0,0,1-.75.14s-.07-.07-.11-.09A1,1,0,0,0,71.7,78a.56.56,0,0,0-.12,0,.88.88,0,0,1,0-.16s0-.06,0-.09a1.17,1.17,0,0,0,0-.2c-.1.11-.13-.07-.21-.06a.14.14,0,0,1-.19-.17c0-.13-.08-.17-.12-.26s-.08,0-.1,0a2,2,0,0,1-.23.18s0,0,0,.1a2,2,0,0,1-.11.32c0,.11,0,.23,0,.35s-.14.19-.1.31l0,0s-.12,0-.08.12-.08.12-.13.18C70,79,70,79,69.82,79s-.27.19-.24.44a4,4,0,0,1,.07.85c0,.18,0,.34-.13.47.06.22-.19.29-.23.47a.1.1,0,0,1-.07,0c-.16,0-.31.1-.47,0s-.1,0-.14,0c-.23.08-.37-.09-.55-.17s-.17-.16-.33-.13-.23,0-.35.21v0c-.29.05-.33.43-.62.48-.06.13-.07,0-.1,0a.3.3,0,0,0-.08-.08s0,0-.06,0-.23.3-.24.3a.33.33,0,0,1-.14,0,.27.27,0,0,0-.32,0s-.06,0-.08,0a1.3,1.3,0,0,1-.49-.3c-.08-.05-.09-.2-.12-.31s0-.15,0-.23,0-.09.08-.11.08-.09,0-.11-.1-.2-.14-.3a.41.41,0,0,1,0-.11l-.12,0,0,0,0,0c.06-.09,0-.1-.07-.13s0-.07,0-.09,0-.19-.11-.25a.22.22,0,0,1-.1-.09c-.14-.26-.27-.52-.4-.79A.25.25,0,0,0,64,79a.1.1,0,0,1-.06-.08c0-.14,0-.22-.19-.17h0c-.07-.06,0-.32,0-.31s.18-.07.26-.1.18-.11.06-.22,0-.12,0-.17.07-.11,0-.13-.13-.14-.2,0a0,0,0,0,0,0,0c-.14.09-.12.07,0,.24l0,.09s-.07,0-.11,0,0,0-.06-.06-.19-.26-.39-.21c0,0-.09,0-.14-.06a.46.46,0,0,1-.22-.15s-.14,0-.22,0-.1,0-.1-.06a.18.18,0,0,1,0-.14l.23-.14c.17-.08.18-.08.15-.27a1.51,1.51,0,0,1,0-.52s0-.11.06-.07a.78.78,0,0,1,.15.1c.06.08.1,0,.14,0s0-.08,0-.1-.1-.18-.18-.14-.13-.06-.15-.15-.07-.28-.11-.41a.27.27,0,0,1,0-.18.19.19,0,0,0,0-.16s-.07,0-.11,0,0,.08,0,.1,0,.14,0,.21-.1.13,0,.17l0,.05a2.47,2.47,0,0,1-.29-.06.23.23,0,0,1-.19-.18,2.19,2.19,0,0,0-.12-.33.57.57,0,0,1,.09-.62c.08-.11.23-.23.09-.41,0,0,0-.08,0-.11s0-.17.14-.14.12-.07.2-.07a.15.15,0,0,0,.11-.08,2.06,2.06,0,0,1,.3-.41.23.23,0,0,0,0-.1s0-.1,0-.14a.11.11,0,0,1,.2,0c0,.15.08,0,.15,0a.3.3,0,0,0,.2-.21c.09-.24.1-.3.25-.38s0-.19.1-.25H64l-.1,0s0-.07,0-.08c.18-.09.26-.29.42-.4a.13.13,0,0,0,0-.07s0-.13,0-.14a.45.45,0,0,1,.2,0c.09,0,.13,0,.17-.06s.11-.11.14-.18,0-.15,0-.2.14-.15.12-.27.1-.13.16-.12.18,0,.26-.06.15-.06.17,0a1.29,1.29,0,0,1,.21,0c.09.05.12,0,.13-.07s0-.14,0-.2a.23.23,0,0,1,.17-.2c.06,0,.15,0,.15-.08,0-.22.21-.19.34-.24a5.73,5.73,0,0,1,1.23-.33s.06,0,.07-.09.23-.06.22,0c0,.23.14,0,.16.1s.2-.07.27.06c.23.08.42.26.69.25,0,0,.08,0,.11,0l.36.45.08.09c.09.06.23,0,.27.18s0,0,0,0c.21-.1.41,0,.62,0a5.77,5.77,0,0,0,.58-.08c.12,0,.24,0,.36,0,.11.1.2-.06.32,0a1.27,1.27,0,0,0,.34,0s.08,0,.08,0,.18.14.28.18.19.13.31.08c.11.21.33,0,.47.14a1.05,1.05,0,0,0,.49.1s.08,0,.08,0,.16.11.25.17l.13.07s0,.14.11.14.11.06.16.1a.09.09,0,0,1,0,0c.09.29.31.52.33.84,0,.1,0,.1-.08.12s-.11,0-.1.11a.76.76,0,0,1-.08.49c-.09.13-.1.31-.24.42a.51.51,0,0,0-.11.22.52.52,0,0,1-.15.18.17.17,0,0,1-.24,0c-.07,0-.15-.06-1.3-1.77s-1.09-1.69-1.1-1.71l0,0,0,0S71.74,70.84,72.83,72.5Zm-6.26,5.55h0s0,0,0,0h0a.06.06,0,0,0,0,.06l0,.06-.14-.06h0s0,0,0,0h0s0,0,0,.06l-.1.06c-.06,0,0-.1-.13-.06s-.13-.08-.18-.15-.09-.14,0-.23,0-.08,0-.08-.08-.2-.05-.26,0-.16-.11-.17a2.33,2.33,0,0,0-.46,0c-.12,0-.15,0-.13.09a.14.14,0,0,1,0,.06c0,.12.14.22,0,.35s0,.07,0,.09.07.26.14.38a.21.21,0,0,1,0,.23.34.34,0,0,0,0,.2.2.2,0,0,1,0,.17.53.53,0,0,0,0,.12h.09a.28.28,0,0,0,.21.21c.07,0,.09.06.12.13a4.07,4.07,0,0,1,.22.7c0,.08,0,.11-.07.13a.1.1,0,0,0,0,.08.13.13,0,0,0,.06.05c.18-.08.14,0,.16.14s.07.1.09.1c.17-.08.39-.08.45-.32s.35-.51.49-.79c.2-.07.12-.21.07-.33a.51.51,0,0,1-.07-.29.85.85,0,0,1,0-.22c0-.08,0-.1-.07-.11s-.12-.1-.16,0-.1.12-.18.06-.14,0-.21,0-.12,0-.17-.07.11-.12.1-.21h.05A.23.23,0,0,0,66.57,78.05Zm-.66-1.56v0l0,0,0,0s0,0,0-.08h0v-.05h0S65.85,76.41,65.91,76.49Zm-.68-1.81-.08-.09,0,0,.06.12s0,0-.13-.18l.08,0,0-.14s0,0,0,0S65,74.53,65.23,74.68Zm7-.66h.08c.11,0,.09.15.14.23s.24.25.45.08l.12-.12a.53.53,0,0,1,.09-.11.61.61,0,0,0,.25-.34c0-.08.08-.17.11-.26s.15-.12.11-.23.11-.11.1-.22-.11-.2,0-.26a1.89,1.89,0,0,0-.11-.25c-.07-.13-.18-.25-.15-.42a.4.4,0,0,0,0-.15l-.12.09-.06.07c-.11.15-.22.18-.35.07a.12.12,0,0,0-.11,0,1.12,1.12,0,0,0-.2,0c-.07,0-.15-.07-.2,0a.72.72,0,0,0-.15-.11s-.07,0-.08.06-.12.09-.21.08a.79.79,0,0,1-.37-.1s0,0-.06.06,0,0,0,0,.14.07.16.13-.05.11,0,.14a4,4,0,0,0,.36.82,1.83,1.83,0,0,1,.23.49s0,.06,0,.06c-.18,0-.06.19-.14.25s0,0,.06.06a.08.08,0,0,0,.06,0A.4.4,0,0,0,72.27,74Zm-8,0s-.09,0-.1,0a.29.29,0,0,0,0,.16c0,.07.05.15,0,.2s-.13.09,0,.15,0,.12.06.18,0,0,.08.07a.33.33,0,0,0,.06-.1s0-.06,0-.07-.08-.07,0-.07.16,0,.13-.19,0-.06,0-.09S64.37,74.1,64.23,74.05Zm2.38-1.26a.82.82,0,0,0,.21,0A.58.58,0,0,0,67,72.6s0-.07,0-.08a1.22,1.22,0,0,0-.17-.15.12.12,0,0,0-.17,0s0,.08,0,.12a.14.14,0,0,0,0,.06c.06.08,0,.09-.06.12a.1.1,0,0,0-.07,0Zm-.73,2.86c-.06.13-.06.13.08.2s.11,0,.12.08.13,0,.2.06.09,0,.08,0a.74.74,0,0,0,0-.14c-.18.1-.2-.12-.32-.16S65.93,75.51,65.88,75.65Zm.52.53a.18.18,0,0,0,0,.13,1.81,1.81,0,0,0,.21.18s.06,0,.06-.06a.4.4,0,0,0-.24-.28S66.4,76.17,66.4,76.18Zm.37,1.48c0-.1.12-.18,0-.21s-.1-.1-.16,0a.16.16,0,0,0,.09.24A.13.13,0,0,0,66.77,77.66Zm-.07-1.13a1.25,1.25,0,0,0,0,.19s0,0,.06,0,0,0,0,0a.67.67,0,0,0,0-.19s-.06-.08-.09-.11Zm-1.76-2.09s.06,0,.06-.07.13-.13,0-.19-.09,0-.12,0S64.85,74.36,64.94,74.44Zm.61.58v0c0,.11.18.19.14.34l0,0a.07.07,0,0,0,0,0,.46.46,0,0,0-.2-.37Zm1.91,2.73c0-.07,0-.12,0-.14a.2.2,0,0,0-.11-.06l-.07,0a.06.06,0,0,0,0,.08.2.2,0,0,0,.09.11S67.39,77.76,67.46,77.75Zm-1-6.69v0c0,.07.07.12,0,.2s0,.06.05,0,.07,0,.08-.06,0-.17-.11-.22S66.44,71.06,66.42,71.06Zm1.7,9.38.15.09s.06,0,.06,0-.07-.08-.12-.11Zm-1.63-3.29a.89.89,0,0,0,.09-.16s0,0,0,0-.07.07-.1.12S66.46,77.1,66.49,77.15Zm-1-5.93s0,0,0,0a.32.32,0,0,0-.14,0l-.08,0s0,.06.08.06A.91.91,0,0,0,65.52,71.22ZM62.33,75a.5.5,0,0,0,.15-.08s0-.06,0-.09a.25.25,0,0,0-.09,0A.68.68,0,0,0,62.33,75ZM64,73.84s0-.09-.06-.11,0,0-.07,0,0,.07,0,.09Zm7.62,3.44c0,.06,0,.1,0,.1l.09,0s0-.07,0-.07S71.71,77.28,71.66,77.28ZM72,77l.06,0a.88.88,0,0,1,0-.15s0,0,0,0Zm-6.74,1.8h.11s0-.1,0-.1a.3.3,0,0,0-.13,0Zm1.6-6.92h.08l0-.13,0,0Zm-1.47,3.36-.06-.12,0,0a.19.19,0,0,0,0,.09S65.36,75.22,65.39,75.22Zm.73-3.48.09.09.09,0,0-.05ZM66,71.06h0a.31.31,0,0,0,0-.1s0,0-.08,0Zm-2.22,3.42,0,0a.16.16,0,0,0,0-.09s0,0-.06,0ZM74,72.17l.15,0a.33.33,0,0,0,0-.06l-.12,0ZM66.91,78v-.08l-.12.07,0,0Zm-.24-.88h-.08l.07.12s0,0,0,0Zm-1.94,2v.08a.1.1,0,0,0,0,0v-.08Zm-.92-1.66v0l-.09,0a.07.07,0,0,0,0,0Zm8.13,0v-.06h-.09s0,0,0,0S71.91,77.47,71.94,77.48ZM68.16,70h.07l-.06-.06s0,0-.06,0Zm5.89,3.1,0-.08s0,0,0,0L74,73S74,73,74.05,73.06Zm-5.86,1.31h.06a.25.25,0,0,0,0-.08s0,0,0,0A.24.24,0,0,0,68.19,74.37Zm3,2.75a.09.09,0,0,0,.06,0V77l0,0S71.25,77.09,71.24,77.12ZM68,80.27v.08s0,0,0,0,0-.06,0-.08Zm2.75-7.39v0h0v0Zm-3.58-.73v0h0v0Zm2.58,5.63v0h0v0Zm4.53-4.54h0v0s0,0,0,0ZM65.6,75.77h0a.1.1,0,0,0,0,0h0Z"/><path class="cls-1" d="M69.79,83.17l.09,0a0,0,0,0,1,0,0l0,.06-.14-.09Z"/><path class="cls-1" d="M64.56,83.14l-.09.09a.5.5,0,0,1,0-.13l0,0Z"/><path class="cls-1" d="M70.12,83.29a.24.24,0,0,1-.09.07s0,0-.06,0a.24.24,0,0,1,.06-.08Z"/><path class="cls-1" d="M63.24,82.6h-.09s0,0,0,0l.08,0S63.22,82.57,63.24,82.6Z"/><path class="cls-1" d="M71.34,81.36s0,.06,0,.09l0,0a.31.31,0,0,1,0-.08S71.31,81.37,71.34,81.36Z"/><path class="cls-1" d="M64.6,83.06l0,0,0,0,0,0Z"/><path class="cls-1" d="M62.37,74.84l0,0a.05.05,0,0,1,0,0l0,0Z"/><path class="cls-1" d="M61.7,74.88a.08.08,0,0,1,0,0,0,0,0,0,1,0,0s0,0,0,0Z"/><path class="cls-1" d="M32.22,76c-3.61,5.28-3.74,5.28-3.86,5.29a.2.2,0,0,0-.15,0c-.11.12-.18.13-.24,0s-.09-.12-.15,0a.7.7,0,0,0-.16-.14s-.08,0-.12.06c-.2.14-.24.12-.35-.11s-.18-.3-.14-.49-.23-.25-.35-.36a1.1,1.1,0,0,1-.38-.68,1.26,1.26,0,0,0-.38-.69.43.43,0,0,1-.12-.22,2.48,2.48,0,0,0-.17-.7,2.16,2.16,0,0,1-.24-.82.74.74,0,0,0-.22-.45.22.22,0,0,0-.23,0l-.15,0a1.11,1.11,0,0,0,0-.17c0-.15.06-.31-.07-.44,0-.2-.09-.18-.22-.17s-.08.06-.06.12l0,.07-.09,0c-.06,0-.11-.06-.16-.07a.17.17,0,0,0-.16.19c0,.28-.1.39-.4.33,0,0-.05,0-.07,0-.21.19-.38,0-.56-.08a.48.48,0,0,1-.28-.26.55.55,0,0,1,.11-.38,1.71,1.71,0,0,1,.47-.57c.06,0,.08-.14.14-.19s.06-.19.19-.22,0-.2.11-.27.22-.52.55-.61a.68.68,0,0,0,.36-.35c.11-.25.36-.32.53-.49a1.31,1.31,0,0,0,.23-.24.94.94,0,0,1,.58-.43c.23,0,.38-.25.57-.38a1.2,1.2,0,0,0,.51-.51c.25-.1.41-.39.73-.34a.16.16,0,0,0,.09-.05c.1-.08.09-.29.3-.24s.2-.22.37-.15c.33-.24.75-.31,1-.63,0,0,.1-.1.14-.09.2.05.28-.15.43-.2s.11-.12.22-.1.07,0,.07-.06c0-.22.22-.25.36-.35s.12,0,.18,0,.07.25.23.24a.17.17,0,0,1,0,.07c0,.06,0,.12,0,.14a.1.1,0,0,0,.12-.14c0-.06,0-.07,0-.08s.16,0,.18.08.17.28,0,.44-.09.12,0,.19a.21.21,0,0,1,.09.25s0,0,0,0h.06c.3,0,.31.06.24.37,0,.1,0,.21,0,.32s0,.11.13.12a.48.48,0,0,0,.38-.2c.4-.36.85-.66,1.22-1,.14-.15.33-.26.47-.42a1.65,1.65,0,0,1,.24-.22c.09-.06.21-.16.3-.14s.2.14.3.22,0,.07,0,.09.11.14.21.11a.16.16,0,0,0,.15-.17c0-.09,0-.15.12-.12s.23-.11.25.1a.21.21,0,0,0,.07.15c.23.16.15.4.13.6a1.08,1.08,0,0,1-.2.42c0,.06-.09.06-.15,0l-.24-.17a.24.24,0,0,0-.41.11c0,.19-.15.43.09.59s0,.1,0,.13a.81.81,0,0,0,.16.29,2.06,2.06,0,0,0,.16.15c.07.05.12.07.12.17a1.16,1.16,0,0,0,.07.37.58.58,0,0,0,.16.19,1.37,1.37,0,0,0,.2.13c.07.05.08.1,0,.16s.12.1.23.06a.42.42,0,0,1,.27,0c.24.09.26.12.18.39,0,.08,0,.07,0,.08l.13,0c-.15.14.12.16.08.27s0,.06-.07.06a1.1,1.1,0,0,0-.49.14c-.08,0-.15.07-.17.15s-.06.08-.12.07-.19,0-.24.1,0,.09,0,.13-.06.09-.13,0-.31,0-.44,0-.18.2-.2.34,0,.06-.09,0a.5.5,0,0,0-.27,0s-.06.07-.07.11.06.07.09.07.21,0,.23.14.09.14.17.19,0,.2.13.19a1.21,1.21,0,0,1,0,.19s-.11.09-.12.14,0,.13.06.18.33.19.3.42.07.09.13.08a2.1,2.1,0,0,0,.5-.09,3.93,3.93,0,0,0,.84-.27s.06,0,.07,0,.23-.2.43-.09.31.06.37.26c0,0,.1,0,.15,0,.21,0,.19.24.35.28s0,.11,0,.17,0,.23-.06.31a.69.69,0,0,1-.4.27c-.1,0-.2.06-.3.07a1.82,1.82,0,0,1-.33,0,.44.44,0,0,0-.41.14,1,1,0,0,1-.17.12c.06.06.11.13.21.11s.07,0,.08,0a.13.13,0,0,1,0,.09.82.82,0,0,0-.46.38c0,.08-.22.09-.29,0s.11-.07,0-.11a.32.32,0,0,0-.14,0s0-.06,0-.08.2-.07.2-.2,0,0,0-.08-.19-.15-.33,0a.31.31,0,0,1-.19,0,.13.13,0,0,1-.1-.06.58.58,0,0,1,0-.14s-.1.06-.12.1-.27.28-.22.5a.09.09,0,0,1,0,.07s-.06.1-.09.1-.13.29-.34.25a.32.32,0,0,0-.36.24,1,1,0,0,1-.21.35c-.06.06-.11.08-.18,0s-.14,0-.13.07-.13.1-.17.18-.05,0-.05,0,.05-.11.07-.16.06-.13-.11-.22l0,0s0-.07,0-.1l-.06.09c0,.09-.1.17-.14.27s0,0-.09,0-.1-.12-.18,0-.27.21-.25.41c-.17,0-.13.13-.14.23s0,.05,0,.08,0,0,0-.06a.2.2,0,0,0-.07-.19s0-.11,0-.17a.94.94,0,0,0-.22.07s0,.07,0,.11,0,.2-.07.27-.12.1-.15,0-.06-.08-.12-.09-.08,0-.11.1-.15.14-.2,0-.09-.12-.17-.05-.09,0-.14,0a.51.51,0,0,0-.36.33l0,.1,0-.08-.06-.09-.08,0s0,.06,0,.07.09.1,0,.16a.1.1,0,0,1-.15,0,.65.65,0,0,0-.23-.15c-.06,0-.14,0-.21,0s-.2.11-.29.19-.16.14-.3.06-.24,0-.27.15-.09.14,0,.24,0,.15-.14.16-.3,0,3-5.28,3.45-5.26,3.44-5.25l0,0s0,0,0,0S35.71,70.76,32.22,76Zm-4,4.85h0a.14.14,0,0,0,0-.06h0s0,0,.13.09l0,0,0,0,.05,0S28.35,80.94,28.26,80.89Zm2.15-2.19a.29.29,0,0,1,0-.14l0,0,0,0,0,0s0,0-.06,0l-.07.08-.08.07c-.06,0-.09-.14-.16,0-.05,0-.1,0-.12-.1s0-.07.05-.1.19-.14.27-.22.05-.11,0-.23,0,0,0-.06.11-.07.06-.14a.18.18,0,0,0-.19-.08v0c-.07-.08-.12,0-.18,0s-.07.11,0,.15.1.15,0,.24-.07.15-.13.19-.09.25-.25.25c0,.15,0,.29,0,.43s-.05.12-.14.15-.26.11-.24-.13c0,0-.05-.06-.08-.08s-.06-.13,0-.2a.67.67,0,0,0,.12-.18l0,0,0,0,0,0s0,0-.07,0c-.21-.11-.21-.11-.22.1s0,.31-.12.43,0,.14,0,.22a.42.42,0,0,1,.17.25c0,.18.1.19.26.08a.2.2,0,0,1,.08,0,.71.71,0,0,0,.53-.2.69.69,0,0,1,.36-.26.52.52,0,0,0,.22-.39s-.06,0-.08,0,0,0-.06-.07l.06,0Zm-.15-3.22-.07,0s0,0,0,0l.11,0s0,0-.14.07v0l-.06,0a.17.17,0,0,0,0,0ZM35,78.26h0s0,0,0-.06l0,0a.58.58,0,0,0,.14.11l0-.07,0,0a.49.49,0,0,0,0,.11S35.14,78.36,35,78.26Zm-6.85-1.17h0s0,0,0,0,0,0-.05,0,0,0,.23,0L28.33,77l-.11.11s.06,0,.08,0S28.36,77.11,28.19,77.09Zm3.72,1.75h0s0,0,0,0,0,0-.05,0l.21.15-.1-.11s0,0-.07.06,0,.19-.14.16,0,0,0,.06a.29.29,0,0,0,.07.08A.22.22,0,0,0,31.91,78.84Zm-3.21.47c-.08,0-.12,0-.14,0s-.15.11-.23.14-.13,0-.11-.07l0,0a1.07,1.07,0,0,0-.22.15s0,0,0,.06a.29.29,0,0,0,.45.15,1.77,1.77,0,0,0,.16-.22A1.43,1.43,0,0,1,28.7,79.31Zm5.83-6.16h0l0-.05h0s0,0,.65-.23c0,0,0-.07,0-.08s-.08,0-.09,0-.1.17-.17.19a.41.41,0,0,0-.21.1c-.08.09-.16.18-.3.06s-.11,0-.15,0,0,.09-.06.14.09,0,.13,0,.24-.13.32-.06a.16.16,0,0,0,.23,0,2.13,2.13,0,0,1,.3-.3S35.15,72.91,34.53,73.15Zm-.91,3.7c0,.24.05.47-.18.61,0,0,0,0,0,.05a.91.91,0,0,0,.37.24s0,0,0,0,0-.1.1-.11.11-.22.26-.24,0-.19,0-.29-.06,0-.06-.08-.21-.34,0-.52c-.22-.21,0-.37.09-.51s0-.15-.07-.17-.16,0-.24-.05-.1-.18-.22-.06c.05.14-.17.06-.15.19a.38.38,0,0,1-.07.22.7.7,0,0,1-.14.16l.19,0s0,.07,0,.1S33.58,76.72,33.62,76.85Zm-6.87-.92.14,0c0-.08.14-.13,0-.24s.05-.16.1-.17.16-.25.3-.33a.15.15,0,0,0,0-.12.31.31,0,0,0-.14-.07.41.41,0,0,0-.22,0s0,.12,0,.16-.08.29-.28.13c0,0-.17,0-.25.07s0,.05,0,.08,0,.24.14.28.1.07.14.1-.13.11,0,.12Zm.87-1.87a2.2,2.2,0,0,0-.42.09,1.29,1.29,0,0,0-.3.22c-.1.07-.09.21,0,.21s.23.15.37.18.07.12.13,0,.17-.1.13-.22a.4.4,0,0,1,.06-.33.47.47,0,0,0,0-.17Zm6.14.92s.05,0,.06,0a.72.72,0,0,1,.36-.35s0,0,0,0l-.07-.08c-.18.1-.36.2-.53.31a.1.1,0,0,0,0,.09Zm-8.49.65,0,0c-.12.13-.28.22-.23.45,0,0-.06.09-.07.15s0,.07,0,.09a.14.14,0,0,0,.09,0c.06-.07.15-.14.16-.22s0-.3.08-.44S25.28,75.65,25.27,75.63Zm2.95,4.58v-.14s0,0-.06,0-.08.2-.22.22,0,.09,0,.13,0,.12,0,.12a.22.22,0,0,0,.16,0C28.25,80.43,28.22,80.31,28.22,80.21Zm3.21-2.36a.41.41,0,0,0,0,.11.16.16,0,0,0,.05.08.16.16,0,0,0,.09,0,1.74,1.74,0,0,1,.11-.18.13.13,0,0,1,.1-.06s.06.09.08,0,0-.07-.07-.09,0,0-.07,0C31.51,77.62,31.43,77.67,31.43,77.85ZM28,77.32c-.16,0-.22,0-.26.13s.07.31.1.28a1.05,1.05,0,0,0,.12-.21.75.75,0,0,0,.07-.12S28,77.33,28,77.32Zm3.29.91s0,0,0,0a.17.17,0,0,0-.12.06,1.31,1.31,0,0,0-.12.27s.05,0,.08.07,0,0,.05,0S31.4,78.46,31.33,78.23Zm-1.85-1.15s-.06-.08-.1-.09-.06,0-.1,0,0,0,0,.06-.25.15-.1.31c.12,0,.15-.16.27-.2S29.45,77.13,29.48,77.08Zm.69-.11s-.05,0-.06,0-.18.11-.27,0a.08.08,0,0,0-.07,0l-.16.11.13,0a.59.59,0,0,1,.14,0c.05,0,.08.09.15,0l.15-.15Zm2.84.78a.4.4,0,0,0,.11,0l.21-.18-.27,0a.39.39,0,0,0-.14.08s0,0,0,0a.22.22,0,0,0,0,.08S33,77.75,33,77.75ZM30.87,71.4l-.05-.13-.08,0-.12.13c-.07,0-.06.08,0,.13s.1.07.15,0S30.84,71.45,30.87,71.4Zm-2.18,9.33c-.08-.07-.11-.12-.15-.12s-.13.19-.1.24l0,0Zm2.22-1.39-.14.16s0,0,0,.06.05,0,.06,0l.13-.18Zm-.57-6.73-.06,0h-.11l-.12.11a.45.45,0,0,0,.16,0S30.29,72.65,30.34,72.61Zm1.08,5c0-.06,0-.12-.07-.15s-.07,0-.11,0,0,.09,0,.12.06.07.1.09S31.4,77.59,31.42,77.58ZM31.65,71s0,0,0,0h0a.8.8,0,0,0-.13.19s.05,0,.07.07ZM27.72,78.8l-.08,0c-.05,0-.13,0-.14,0s0,.11,0,.16ZM29.87,74c-.06,0-.12.06-.11.07s-.06.15,0,.18.08,0,.08,0A2.06,2.06,0,0,0,29.87,74Zm-2.63,3.62-.09-.09-.17.11s.06,0,.09,0A.51.51,0,0,0,27.24,77.62Zm-.74-1.79c-.06,0-.08,0-.1,0s-.13,0-.15,0a.18.18,0,0,0,0,.09Zm6.13.54c-.05,0-.08-.07-.11-.08s-.05,0-.07.06a.2.2,0,0,0,.08.08S32.58,76.41,32.63,76.37Zm-2.12.06a.7.7,0,0,0,0,.12.41.41,0,0,0,.05.09s.09-.07.09-.1S30.56,76.48,30.51,76.43Zm3.66-1.08c-.06,0-.08-.07-.12-.08s0,0-.07.06a.6.6,0,0,0,.08.08S34.11,75.39,34.17,75.35Zm-7.69-.26-.1,0s0,0-.06,0l.13.09Zm2.58-.49,0,.06s0,0,.06,0,.05,0,.07,0Zm6.29-.42-.05,0a.3.3,0,0,0,0,.1l0,0A.44.44,0,0,0,35.35,74.18ZM31.69,72l.09,0s0,0-.06,0,0,0-.06,0Zm-2.38,2.4,0,.07a.32.32,0,0,0,0-.09s0,0,0-.06Zm3.88,2,.06,0a.32.32,0,0,0-.09,0s0,0,0,0Zm-3-2.26.08,0-.05,0-.09,0Zm-2.4-.79a.18.18,0,0,0-.1,0s0,0,0,0l.09,0S27.76,73.41,27.78,73.39Zm6.13,5.51s0-.06,0-.05l-.1,0s0,0,0,0A.22.22,0,0,0,33.91,78.9ZM31,71.25l0,0,0,0,0,0Zm-.51,5.83,0,0-.05,0,0,0Zm-1.07-1.26,0,0-.05,0,0,0Zm-.17,2.3,0,0,0,0,0,0Zm1.32-3.61,0,0,0,0,0,.05ZM30,73.11l0,0,0,0s0,0,0,0Zm-.62,5.38,0,0,.05,0,0,0Zm4.93-5.73,0,0a0,0,0,0,0,0,0s0,0,0,.05Zm-.27-.22,0,0s0,0,0,0,0,0,0,0Zm-3.91-.13,0,0-.05,0s0,0,0,0Z"/><path class="cls-1" d="M33.84,80.74c0-.06-.14-.1,0-.16s.1-.26.15-.39,0-.12-.06-.18c.15-.13.37-.22.37-.47a.62.62,0,0,1,.29-.07c.07,0,.11,0,.15,0a1,1,0,0,1,.15-.26s.09,0,.13,0a2,2,0,0,0-.07.23.54.54,0,0,1-.13.3s-.11.07-.12,0-.18,0-.23.09-.18.12-.18.25-.06,0-.09,0-.12,0-.13.12a1.76,1.76,0,0,1-.07.4C34,80.66,33.88,80.69,33.84,80.74Z"/><path class="cls-1" d="M33.07,80.6c-.09-.12-.15-.08-.22,0s-.09-.11-.06-.15a1.63,1.63,0,0,1,.23-.29.66.66,0,0,1,.24-.11h.05a.09.09,0,0,1,0,.07.16.16,0,0,1-.06.08c-.1.1-.2.18-.16.34S33.08,80.57,33.07,80.6Z"/><path class="cls-1" d="M35.22,80.15v.18s0,0,0,0l0,0c0-.1,0-.17-.07-.25s.06-.09.09-.14a.31.31,0,0,1,0,.1A.34.34,0,0,1,35.22,80.15Z"/><path class="cls-1" d="M36.55,78.71l-.09-.1.07-.06.14.12Z"/><path class="cls-1" d="M31.18,80.55l.1.09a1,1,0,0,1-.11.17l0,0C31.15,80.7,31.16,80.64,31.18,80.55Z"/><path class="cls-1" d="M29.82,81a.64.64,0,0,1-.1.13s0,0,0,0V81s0,0,0,0a.33.33,0,0,1,.1,0A.11.11,0,0,1,29.82,81Z"/><path class="cls-1" d="M35,79l.12.07-.14.1s0,0,0-.08S35,79,35,79Z"/><path class="cls-1" d="M32.89,80.94,33,81s0,0,0,.06l-.13-.1Z"/><path class="cls-1" d="M36.42,79.27l0,.1s0,0,0,.06l-.1-.13Z"/><path class="cls-1" d="M33.84,80l-.07,0a.32.32,0,0,1,.09,0l0,0Z"/><path class="cls-1" d="M33.53,80.81s-.06,0-.06,0l0-.09,0,0A.38.38,0,0,1,33.53,80.81Z"/><path class="cls-1" d="M35.32,71l0,0,.05,0,0,0Z"/><path class="cls-1" d="M31.42,80.47l0,0,0,0a.08.08,0,0,1,0,0Z"/><path class="cls-1" d="M32.15,80.49l0,0s0,0,0,0l0,0Z"/><path class="cls-1" d="M33.84,80.77l-.05,0a.2.2,0,0,0,0,0l.06,0Z"/><path class="cls-1" d="M30.2,77.89l-.05.07a.32.32,0,0,1,0-.09s0,0,0-.05Z"/><circle class="cls-1" cx="30.37" cy="78.73" r="0.05"/><path class="cls-1" d="M30.26,78.77h.08l-.05.06Z"/><path class="cls-1" d="M28.22,79.46l0,0a.14.14,0,0,1,0,0l.06,0Z"/><path class="cls-1" d="M108.12,80.08c.06.19.1.23.38.26l-.15.24.15.07-.18,0a.54.54,0,0,1,0,.51.58.58,0,0,1-.14.13c-.06-.07-.11-.07-.17,0s-.09-.06-.09-.09,0-.13,0-.14S108,81,108,81a.13.13,0,0,0-.16-.11s-.12,0-.13.09a.26.26,0,0,0,0,.23c.12.17,0,.27-.07.39s0,.05,0,.07h-.1c-.08,0-.17,0-.25,0a.69.69,0,0,0-.17.26s0,.1,0,.11c-.21.09-.15.28-.15.44v.09c-.12.09-.27.09-.39.18a.76.76,0,0,1-.38.08c-.09,0-.18-.09-.26-.15s-.14-.16-.27-.16-.11-.12,0-.17,0-.21.09-.27.18,0,.24-.13a1.91,1.91,0,0,1,.16-.32s0-.09.07-.09c.26,0,.21-.27.25-.45.06,0,.18,0,.19,0a.47.47,0,0,1,.21-.21s0-.13,0-.26,0,0,0,0a.2.2,0,0,0,0,.06l.09,0s0,0-.1,0-.09-.05-.15,0-.12.08-.23.06a1,1,0,0,1-.52-.26l.14-.07-.27,0,.07-.17a1.6,1.6,0,0,0-.22,0s-.07,0-.1,0,0,.07.06.07,0,.17.16.13a.36.36,0,0,1,0,.14c0,.07-.23.15-.31.12a2,2,0,0,0-.71-.15v-.2c0-.1-.12-.22-.21-.21a.43.43,0,0,0-.18.06s0,.07,0,.1a.64.64,0,0,1-.08.14c-.19,0-.23-.22-.32-.33s-.12-.19-.27-.23-.18-.13-.31-.11-.08-.06-.11-.1a1.43,1.43,0,0,0-.72-.44.25.25,0,0,1-.13,0,.44.44,0,0,0-.28-.14.5.5,0,0,1-.3-.2,1.64,1.64,0,0,0-.3-.29,2.37,2.37,0,0,0-.33-.22l-.09-.08s-.06-.13-.11-.16-.11,0-.18,0a.56.56,0,0,0,0-.23c-.06-.08,0-.12.08-.2-.25,0-.44,0-.63.06s-.22,0-.27-.17-.1-.21-.26-.2c0-.14.15-.26,0-.39s-.06-.28.09-.38a.14.14,0,0,0,0-.11c0-.11,0-.14.14-.14s.1-.06.11-.14,0-.43.06-.64c0,0,0-.07,0-.09.18-.26.24-.58.49-.79a1.39,1.39,0,0,0,.41-.46c.23-.11.36-.36.64-.42s.32-.31.45-.49v-.06s0,0,0,0c-.28-.44-.28-.44.06-.87,0,0,0-.06,0-.07s-.08,0-.1-.07,0-.07,0-.1a.81.81,0,0,0-.27-.58c-.09-.09-.08-.21-.14-.3a.13.13,0,0,1,.08-.17s.13-.06.16,0,.07.1.11.14a.18.18,0,0,0,.24,0c.17-.11.32-.24.48-.36l-.16-.23a1,1,0,0,1-.07-.15c0-.07,0-.08.09-.08l0-.22c-.12,0-.15-.14-.27-.14-.33,0-.65,0-1-.06-.15,0-.17,0-.17-.22.23,0,.45.19.7,0,.05,0,.12,0,.15,0,.3,0,.61.09.9-.09a3.19,3.19,0,0,1,.64-.2.14.14,0,0,1,.11,0,.26.26,0,0,0,.26.1l0,0c0,.16.18.13.23.23s.2.12.29.15a2.51,2.51,0,0,0,.55.07c.2,0,.4,0,.6.08a.2.2,0,0,0,.11,0,.43.43,0,0,1,.33,0,.35.35,0,0,0,.16.06,1.48,1.48,0,0,1,.55.06,3.42,3.42,0,0,1,.84.08l.64,0a1.55,1.55,0,0,0,.43-.07c.06,0,.12-.07.19,0a.2.2,0,0,0,.2-.09s0,0,0,0a1.16,1.16,0,0,0,.18,0s.13-.06.15,0,.32.1.38.25.31.24.49.28.4,0,.6.05a1.33,1.33,0,0,1,.38.07c.11.06.27,0,.4.06s.14,0,.21,0,.16,0,.17.24c-.16,0-.31,0-.46-.06a.25.25,0,0,0-.15,0c-.27,0-.54-.09-.81-.06a.12.12,0,0,1-.08,0c-.19-.1-.34,0-.47.13a.32.32,0,0,0-.11.38s0,.05,0,.06-.13.13-.14.21a.21.21,0,0,1-.17.17.15.15,0,0,0-.08.17c0,.11,0,.22,0,.34l.29,0c-.07.27-.25.37-.47.27a1.89,1.89,0,0,1-.21-.09.94.94,0,0,1-.16-.14c0,.08-.19.1-.07.22,0,.2.17.39,0,.61a.07.07,0,0,0,0,0c0,.09.2.11.08.24,0,.07.06.18.13.22s.1,0,.09.11a.77.77,0,0,0,.06.4,1.64,1.64,0,0,1,.06.47c0,.16,0,.24.21.3l.21.07-.08.32.2,0a.16.16,0,0,0,0,.26c.14.11.14.26.2.4s0,0,0,0c-.16.16,0,.26.06.38s.17.21.2.33.08.11.11.17a1.36,1.36,0,0,0,.17.17.11.11,0,0,1,0,.08c-.07,0,0,.13-.05.19s0,.12.1.14.11.08.19.13l-.16.07a.07.07,0,0,1-.06,0s0,.08,0,.08.12.06.1.14.07.4-.06.58c0,0,0,0,0,0,.15.18,0,.24-.11.33a1.08,1.08,0,0,1-.18.11l0-.17a1,1,0,0,1-.77,0,2.62,2.62,0,0,0-.49-.19.37.37,0,0,0-.39,0,.27.27,0,0,1-.22,0c-.15,0-.16,0-.23.14s0,.31-.11.44,0,0,0,.07,0,.1,0,.12-.07,0-.08-.08-.08,0-.12-.07-.1-.08,0-.14,0,0,0,0-.09-.09-.1-.14,0-.1,0-.16,0,0-.06-.06,0-.12,0-.16.12,0,.14-.09-.09-.06-.11-.1a.76.76,0,0,1,0-.15,2.75,2.75,0,0,0,0-.48l-.24.22.14.17c0,.18-.16.27-.33.34l.2.13s0,0,0,0-.15,0-.18.07a.92.92,0,0,0-.09.23c0,.06.16.21.2.18s.12,0,.22.1a1.08,1.08,0,0,1-.22,0c-.08,0-.15-.06-.21,0l-.08.08c-.06-.11-.11,0-.16,0-.23,0-.23,0-.23.18,0,0,0,.06,0,.12l-.1,0-.25.25a.59.59,0,0,1,.2.09c.06,0,.16,0,.18.16s.14,0,.2.08.18.08.29,0,.13-.12.18-.11.11-.14.17,0c.08-.06.17-.1.16-.22S108.1,80.1,108.12,80.08Zm-.51-9.29s-.08.09-.15,0-.37-.07-.55-.15-.13,0-.2,0-.14,0-.18,0c-.3-.17-.64-.08-1-.17a1.66,1.66,0,0,0-.45,0c-.13,0-.27,0-.38.11.05.15-.06.33.06.48s0,.09-.09.13c-.11-.14-.17,0-.33,0,.12,0,.18.08.24.09s.32,0,.43.14.07,0,.1,0a.88.88,0,0,0,.71,0c.09,0,.17-.09.27-.07a.53.53,0,0,0,.49-.15s0,0,.07,0a2.63,2.63,0,0,0,.49-.06,1.09,1.09,0,0,0,.39-.15C107.65,71,107.67,70.89,107.61,70.79Zm-4.31,1.9c.1,0,.17-.07.23-.11s.16-.06.14-.18.09-.14.17-.13l.2,0c.12,0,.34-.24.35-.35a.11.11,0,0,0,0-.06c-.14-.1-.12-.29-.22-.42a.59.59,0,0,1-.12-.22c-.06-.15-.12-.2-.26-.15a.53.53,0,0,0-.3.24c-.07.13,0,.28-.09.39s0,.13.06.2.07.22-.1.37a.13.13,0,0,0,0,.07Zm4,8-.07.15-.06.12a1.93,1.93,0,0,0,.17.53h.14a.33.33,0,0,0,0-.1.09.09,0,0,1,0-.12A.43.43,0,0,0,107.32,80.65Zm1.22-7.9c-.16-.12-.22-.12-.3,0s-.08.27-.28.27-.11.12,0,.23Zm-5.39-2-.27.28a.64.64,0,0,0,.14.08.22.22,0,0,0,.16,0C103.33,70.94,103.17,70.84,103.15,70.73Zm5.67,3.14s0,0,0,0a2,2,0,0,1,.12.4.31.31,0,0,0,.13,0s0-.06,0-.09-.18-.13-.08-.25L109,74l-.09-.08S108.85,73.87,108.82,73.87Zm.73-2.15-.26.16.17.13C109.65,71.83,109.65,71.83,109.55,71.72ZM103,75.38a2.08,2.08,0,0,0,.21-.21.11.11,0,0,0,0-.08s0,0,0,0S103,75.21,103,75.38ZM105.34,74l0,.19h0c.06,0,.17-.09.16-.12S105.44,74.08,105.34,74Zm.49-1.18-.11.13s-.1.07-.06.13,0,0,0,0a.58.58,0,0,0,.12-.1S105.83,73,105.83,72.86Zm3.08,2.87v0l-.16-.05v.15Zm-6.14-4.36.2.09v-.18Zm4.11,9.12c-.15-.13-.15-.13-.26,0Zm.38-1.16c0-.09.08-.15.06-.2s-.07,0-.11,0S107.23,79.24,107.26,79.33ZM103,74.87l.07-.08a.14.14,0,0,0-.06-.07s-.06,0-.06,0S103,74.82,103,74.87Zm3.5,6.83v0l-.1-.08,0,.08Zm-3.6-10.1,0-.07-.1.08,0,0ZM106,73.9s0,0,0,0h-.08s0,.05,0,.08l.08,0Zm0,.7v.06l.16,0v0Zm2.8,4a.09.09,0,0,0,0,0,.24.24,0,0,0,0,.08s0,0,0,0A.31.31,0,0,0,108.82,78.56Zm-2.69-5.31s0,0,0,0l-.08,0,0,0A.12.12,0,0,0,106.13,73.25Zm.28,6.78.08,0s0,0-.06,0,0,0-.05,0Zm-1.25.17.07,0s0,0,0,0l-.07,0Zm3-8.13,0,0,0,0,0,0Zm.42.22,0,0,0,0,0,0Zm-3.78,7.1,0,0,0,0a.05.05,0,0,0,0,0Zm.26-6,0,0,0,0s0,0,0,0Zm-4.33,3.52,0,0s0,0,0,0l0,0Zm1.92.21,0,0a0,0,0,0,0,0,0l0,0Zm4.39,4,0,0a.05.05,0,0,0,0,0,0,0,0,0,0,0,0Zm-1.07-1,0,0,0,0,0,0Z"/><path class="cls-1" d="M108.83,80.59c-.12,0-.25.08-.34-.06s.11-.15.2,0A1.7,1.7,0,0,0,108.83,80.59Z"/><path class="cls-1" d="M107.22,80.11s0,0-.06.06H107a.23.23,0,0,1,0-.1c0-.08.1-.07.16,0Z"/><path class="cls-1" d="M107.6,80s-.1,0-.12,0-.07,0-.1,0a.3.3,0,0,1,0-.1s.07,0,.1,0A.79.79,0,0,1,107.6,80Z"/><path class="cls-1" d="M101.06,70.92c-.06,0-.13,0-.15,0s-.17,0-.13-.11.08.08.15,0,.09,0,.14.08Z"/><path class="cls-1" d="M108.11,80.07l.12-.19s0,0,.13,0C108.29,80,108.25,80.1,108.11,80.07Z"/><path class="cls-1" d="M106.8,82.9l-.17.06V82.8l.16,0Z"/><path class="cls-1" d="M101.36,70.9l-.14.14-.08-.1Z"/><path class="cls-1" d="M109.74,73.48a.25.25,0,0,1,0-.11s0,0,.06,0,0,0,.06.07Z"/><path class="cls-1" d="M109.24,80.3l.08,0,0,0s0,0,0,0Z"/><path class="cls-1" d="M100.27,70.67l0,0s0,0,0,0l0,0Z"/><path class="cls-1" d="M105.22,80.72l0,0,0,0a0,0,0,0,1,0,0Z"/></svg>